{
    "asset" : {
        "generator" : "Khronos glTF Blender I/O v1.4.40",
        "version" : "2.0"
    },
    "scene" : 0,
    "scenes" : [
        {
            "name" : "Scene",
            "nodes" : [
                0,
                1,
                2,
                3,
                4
            ]
        }
    ],
    "nodes" : [
        {
            "name" : "Camera",
            "rotation" : [
                0.7071068286895752,
                0,
                0,
                0.7071067094802856
            ],
            "translation" : [
                1.9896701574325562,
                0.622139036655426,
                15.516487121582031
            ]
        },
        {
            "mesh" : 0,
            "name" : "Plane"
        },
        {
            "name" : "Sun",
            "rotation" : [
                0,
                0,
                0.45245110988616943,
                0.8917891979217529
            ],
            "translation" : [
                -14.515996932983398,
                10.399467468261719,
                0
            ]
        },
        {
            "name" : "Area",
            "rotation" : [
                0.14352291822433472,
                -0.18662196397781372,
                -0.5924884676933289,
                0.7704095244407654
            ],
            "scale" : [
                6.3325605392456055,
                6.3325605392456055,
                6.332561016082764
            ],
            "translation" : [
                25.949499130249023,
                6.746869087219238,
                12.55540657043457
            ]
        },
        {
            "name" : "Area.001",
            "rotation" : [
                -0.10556880384683609,
                0.11182112246751785,
                -0.5202778577804565,
                0.8400370478630066
            ],
            "scale" : [
                6.3325605392456055,
                6.3325605392456055,
                6.332561016082764
            ],
            "translation" : [
                29.536758422851562,
                13.187627792358398,
                -9.538846015930176
            ]
        }
    ],
    "materials" : [
        {
            "doubleSided" : true,
            "name" : "Material.002",
            "pbrMetallicRoughness" : {}
        }
    ],
    "meshes" : [
        {
            "name" : "Plane",
            "primitives" : [
                {
                    "attributes" : {
                        "POSITION" : 0,
                        "NORMAL" : 1,
                        "TEXCOORD_0" : 2
                    },
                    "indices" : 3,
                    "material" : 0
                }
            ]
        }
    ],
    "accessors" : [
        {
            "bufferView" : 0,
            "componentType" : 5126,
            "count" : 49524,
            "max" : [
                7.449577331542969,
                4.98016881942749,
                2.7730350494384766
            ],
            "min" : [
                -3.581209897994995,
                -3.0382606983184814,
                -5.097321510314941
            ],
            "type" : "VEC3"
        },
        {
            "bufferView" : 1,
            "componentType" : 5126,
            "count" : 49524,
            "type" : "VEC3"
        },
        {
            "bufferView" : 2,
            "componentType" : 5126,
            "count" : 49524,
            "type" : "VEC2"
        },
        {
            "bufferView" : 3,
            "componentType" : 5123,
            "count" : 242688,
            "type" : "SCALAR"
        }
    ],
    "bufferViews" : [
        {
            "buffer" : 0,
            "byteLength" : 594288,
            "byteOffset" : 0
        },
        {
            "buffer" : 0,
            "byteLength" : 594288,
            "byteOffset" : 594288
        },
        {
            "buffer" : 0,
            "byteLength" : 396192,
            "byteOffset" : 1188576
        },
        {
            "buffer" : 0,
            "byteLength" : 485376,
            "byteOffset" : 1584768
        }
    ],
    "buffers" : [
        {
            "byteLength" : 2070144,
            "uri" : "data:application/octet-stream;base64,"
        }
    ]
}
